<?xml version="1.0" encoding="UTF-8" standalone="no"?>
<!DOCTYPE svg PUBLIC "-//W3C//DTD SVG 1.1//EN"
 "http://www.w3.org/Graphics/SVG/1.1/DTD/svg11.dtd">
<!-- Generated by graphviz version 2.47.0 (20210316.0004)
 -->
<!-- Title: dependencies Pages: 1 -->
<svg width="1452pt" height="284pt"
 viewBox="0.00 0.00 1452.00 284.00" xmlns="http://www.w3.org/2000/svg" xmlns:xlink="http://www.w3.org/1999/xlink">
<g id="graph0" class="graph" transform="scale(1 1) rotate(0) translate(4 280)">
<title>dependencies</title>
<polygon fill="white" stroke="transparent" points="-4,4 -4,-280 1448,-280 1448,4 -4,4"/>
<text text-anchor="start" x="701.01" y="-42.4" font-family="Times-12" font-weight="bold" font-size="14.00">Legend</text>
<polygon fill="#ffffb3" stroke="transparent" points="488,-10 488,-30 508,-30 508,-10 488,-10"/>
<text text-anchor="start" x="511.63" y="-15.4" font-family="Times-12" font-size="14.00"> &#160;Declarations</text>
<polygon fill="#8dd3c7" stroke="transparent" points="601,-10 601,-30 621,-30 621,-10 601,-10"/>
<text text-anchor="start" x="624.73" y="-15.4" font-family="Times-12" font-size="14.00"> &#160;Module</text>
<polygon fill="#80b1d3" stroke="transparent" points="687,-10 687,-30 707,-30 707,-10 687,-10"/>
<text text-anchor="start" x="710.78" y="-15.4" font-family="Times-12" font-size="14.00"> &#160;Bootstrap</text>
<polygon fill="#fdb462" stroke="transparent" points="784,-10 784,-30 804,-30 804,-10 784,-10"/>
<text text-anchor="start" x="807.67" y="-15.4" font-family="Times-12" font-size="14.00"> &#160;Providers</text>
<polygon fill="#fb8072" stroke="transparent" points="880,-10 880,-30 900,-30 900,-10 880,-10"/>
<text text-anchor="start" x="903.73" y="-15.4" font-family="Times-12" font-size="14.00"> &#160;Exports</text>
<g id="clust1" class="cluster">
<title>cluster_AppModule</title>
<polygon fill="none" stroke="black" stroke-dasharray="1,5" points="8,-70 8,-268 1436,-268 1436,-70 8,-70"/>
</g>
<g id="clust2" class="cluster">
<title>cluster_AppModule_declarations</title>
<polygon fill="none" stroke="black" points="308,-78 308,-130 1428,-130 1428,-78 308,-78"/>
</g>
<g id="clust11" class="cluster">
<title>cluster_AppModule_imports</title>
<polygon fill="none" stroke="black" points="156,-78 156,-130 300,-130 300,-78 156,-78"/>
</g>
<g id="clust13" class="cluster">
<title>cluster_AppModule_bootstrap</title>
<polygon fill="none" stroke="black" points="646,-208 646,-260 770,-260 770,-208 646,-208"/>
</g>
<g id="clust14" class="cluster">
<title>cluster_AppModule_providers</title>
<polygon fill="none" stroke="black" points="16,-78 16,-130 148,-130 148,-78 16,-78"/>
</g>
<!-- AdminloginComponent -->
<g id="node1" class="node">
<title>AdminloginComponent</title>
<polygon fill="#ffffb3" stroke="black" points="1419.5,-122 1270.5,-122 1270.5,-86 1419.5,-86 1419.5,-122"/>
<text text-anchor="middle" x="1345" y="-99.8" font-family="Times,serif" font-size="14.00">AdminloginComponent</text>
</g>
<!-- AppModule -->
<g id="node9" class="node">
<title>AppModule</title>
<polygon fill="#8dd3c7" stroke="black" points="749.66,-187 746.66,-191 725.66,-191 722.66,-187 666.34,-187 666.34,-151 749.66,-151 749.66,-187"/>
<text text-anchor="middle" x="708" y="-164.8" font-family="Times,serif" font-size="14.00">AppModule</text>
</g>
<!-- AdminloginComponent&#45;&gt;AppModule -->
<g id="edge1" class="edge">
<title>AdminloginComponent&#45;&gt;AppModule</title>
<path fill="none" stroke="black" d="M1345,-122.01C1345,-144.49 1345,-180 1345,-180 1345,-180 759.8,-180 759.8,-180"/>
<polygon fill="black" stroke="black" points="759.8,-176.5 749.8,-180 759.8,-183.5 759.8,-176.5"/>
</g>
<!-- AppComponent -->
<g id="node2" class="node">
<title>AppComponent</title>
<polygon fill="#ffffb3" stroke="black" points="1252.94,-122 1147.06,-122 1147.06,-86 1252.94,-86 1252.94,-122"/>
<text text-anchor="middle" x="1200" y="-99.8" font-family="Times,serif" font-size="14.00">AppComponent</text>
</g>
<!-- AppComponent&#45;&gt;AppModule -->
<g id="edge2" class="edge">
<title>AppComponent&#45;&gt;AppModule</title>
<path fill="none" stroke="black" d="M1200,-122.13C1200,-142.57 1200,-173 1200,-173 1200,-173 759.95,-173 759.95,-173"/>
<polygon fill="black" stroke="black" points="759.95,-169.5 749.95,-173 759.95,-176.5 759.95,-169.5"/>
</g>
<!-- DashboardComponent -->
<g id="node3" class="node">
<title>DashboardComponent</title>
<polygon fill="#ffffb3" stroke="black" points="1128.97,-122 987.03,-122 987.03,-86 1128.97,-86 1128.97,-122"/>
<text text-anchor="middle" x="1058" y="-99.8" font-family="Times,serif" font-size="14.00">DashboardComponent</text>
</g>
<!-- DashboardComponent&#45;&gt;AppModule -->
<g id="edge3" class="edge">
<title>DashboardComponent&#45;&gt;AppModule</title>
<path fill="none" stroke="black" d="M1058,-122.27C1058,-140.56 1058,-166 1058,-166 1058,-166 759.87,-166 759.87,-166"/>
<polygon fill="black" stroke="black" points="759.87,-162.5 749.87,-166 759.87,-169.5 759.87,-162.5"/>
</g>
<!-- LoginComponent -->
<g id="node4" class="node">
<title>LoginComponent</title>
<polygon fill="#ffffb3" stroke="black" points="969.28,-122 854.72,-122 854.72,-86 969.28,-86 969.28,-122"/>
<text text-anchor="middle" x="912" y="-99.8" font-family="Times,serif" font-size="14.00">LoginComponent</text>
</g>
<!-- LoginComponent&#45;&gt;AppModule -->
<g id="edge4" class="edge">
<title>LoginComponent&#45;&gt;AppModule</title>
<path fill="none" stroke="black" d="M912,-122.01C912,-138.05 912,-159 912,-159 912,-159 759.77,-159 759.77,-159"/>
<polygon fill="black" stroke="black" points="759.77,-155.5 749.77,-159 759.77,-162.5 759.77,-155.5"/>
</g>
<!-- OrdersComponent -->
<g id="node5" class="node">
<title>OrdersComponent</title>
<polygon fill="#ffffb3" stroke="black" points="836.92,-122 717.08,-122 717.08,-86 836.92,-86 836.92,-122"/>
<text text-anchor="middle" x="777" y="-99.8" font-family="Times,serif" font-size="14.00">OrdersComponent</text>
</g>
<!-- OrdersComponent&#45;&gt;AppModule -->
<g id="edge5" class="edge">
<title>OrdersComponent&#45;&gt;AppModule</title>
<path fill="none" stroke="black" d="M733.56,-122.11C733.56,-122.11 733.56,-140.99 733.56,-140.99"/>
<polygon fill="black" stroke="black" points="730.06,-140.99 733.56,-150.99 737.06,-140.99 730.06,-140.99"/>
</g>
<!-- SignupComponent -->
<g id="node6" class="node">
<title>SignupComponent</title>
<polygon fill="#ffffb3" stroke="black" points="699.51,-122 578.49,-122 578.49,-86 699.51,-86 699.51,-122"/>
<text text-anchor="middle" x="639" y="-99.8" font-family="Times,serif" font-size="14.00">SignupComponent</text>
</g>
<!-- SignupComponent&#45;&gt;AppModule -->
<g id="edge6" class="edge">
<title>SignupComponent&#45;&gt;AppModule</title>
<path fill="none" stroke="black" d="M682.84,-122.11C682.84,-122.11 682.84,-140.99 682.84,-140.99"/>
<polygon fill="black" stroke="black" points="679.34,-140.99 682.84,-150.99 686.34,-140.99 679.34,-140.99"/>
</g>
<!-- StockComponent -->
<g id="node7" class="node">
<title>StockComponent</title>
<polygon fill="#ffffb3" stroke="black" points="560.72,-122 447.28,-122 447.28,-86 560.72,-86 560.72,-122"/>
<text text-anchor="middle" x="504" y="-99.8" font-family="Times,serif" font-size="14.00">StockComponent</text>
</g>
<!-- StockComponent&#45;&gt;AppModule -->
<g id="edge7" class="edge">
<title>StockComponent&#45;&gt;AppModule</title>
<path fill="none" stroke="black" d="M504,-122.01C504,-138.05 504,-159 504,-159 504,-159 656.23,-159 656.23,-159"/>
<polygon fill="black" stroke="black" points="656.23,-162.5 666.23,-159 656.23,-155.5 656.23,-162.5"/>
</g>
<!-- UsersComponent -->
<g id="node8" class="node">
<title>UsersComponent</title>
<polygon fill="#ffffb3" stroke="black" points="429.7,-122 316.3,-122 316.3,-86 429.7,-86 429.7,-122"/>
<text text-anchor="middle" x="373" y="-99.8" font-family="Times,serif" font-size="14.00">UsersComponent</text>
</g>
<!-- UsersComponent&#45;&gt;AppModule -->
<g id="edge8" class="edge">
<title>UsersComponent&#45;&gt;AppModule</title>
<path fill="none" stroke="black" d="M373,-122.27C373,-140.56 373,-166 373,-166 373,-166 656.25,-166 656.25,-166"/>
<polygon fill="black" stroke="black" points="656.25,-169.5 666.25,-166 656.25,-162.5 656.25,-169.5"/>
</g>
<!-- AppComponent  -->
<g id="node11" class="node">
<title>AppComponent </title>
<polygon fill="#80b1d3" stroke="black" points="762.44,-252 653.56,-252 653.56,-216 762.44,-216 762.44,-252"/>
<text text-anchor="middle" x="708" y="-229.8" font-family="Times,serif" font-size="14.00">AppComponent </text>
</g>
<!-- AppModule&#45;&gt;AppComponent  -->
<g id="edge10" class="edge">
<title>AppModule&#45;&gt;AppComponent </title>
<path fill="none" stroke="black" stroke-dasharray="1,5" d="M708,-187.11C708,-187.11 708,-205.99 708,-205.99"/>
<polygon fill="black" stroke="black" points="704.5,-205.99 708,-215.99 711.5,-205.99 704.5,-205.99"/>
</g>
<!-- AppRoutingModule -->
<g id="node10" class="node">
<title>AppRoutingModule</title>
<polygon fill="#8dd3c7" stroke="black" points="292.27,-122 289.27,-126 268.27,-126 265.27,-122 163.73,-122 163.73,-86 292.27,-86 292.27,-122"/>
<text text-anchor="middle" x="228" y="-99.8" font-family="Times,serif" font-size="14.00">AppRoutingModule</text>
</g>
<!-- AppRoutingModule&#45;&gt;AppModule -->
<g id="edge9" class="edge">
<title>AppRoutingModule&#45;&gt;AppModule</title>
<path fill="none" stroke="black" d="M228,-122.13C228,-142.57 228,-173 228,-173 228,-173 656.24,-173 656.24,-173"/>
<polygon fill="black" stroke="black" points="656.24,-176.5 666.24,-173 656.24,-169.5 656.24,-176.5"/>
</g>
<!-- UserService -->
<g id="node12" class="node">
<title>UserService</title>
<ellipse fill="#fdb462" stroke="black" cx="82" cy="-104" rx="58.44" ry="18"/>
<text text-anchor="middle" x="82" y="-99.8" font-family="Times,serif" font-size="14.00">UserService</text>
</g>
<!-- UserService&#45;&gt;AppModule -->
<g id="edge11" class="edge">
<title>UserService&#45;&gt;AppModule</title>
<path fill="none" stroke="black" d="M82,-122.01C82,-144.49 82,-180 82,-180 82,-180 655.95,-180 655.95,-180"/>
<polygon fill="black" stroke="black" points="655.95,-183.5 665.95,-180 655.95,-176.5 655.95,-183.5"/>
</g>
</g>
</svg>
